<?xml version="1.0" encoding="UTF-8"?>
<!DOCTYPE svg PUBLIC "-//W3C//DTD SVG 1.1//EN" "http://www.w3.org/Graphics/SVG/1.1/DTD/svg11.dtd">
<svg xmlns="http://www.w3.org/2000/svg" version="1.1" width="3607px" height="4042px" style="shape-rendering:geometricPrecision; text-rendering:geometricPrecision; image-rendering:optimizeQuality; fill-rule:evenodd; clip-rule:evenodd" xmlns:xlink="http://www.w3.org/1999/xlink">
<g><path style="opacity:0.998" fill="#255524" d="M 1175.5,-0.5 C 1207.83,-0.5 1240.17,-0.5 1272.5,-0.5C 1437.5,6.03376 1596.83,39.7004 1750.5,100.5C 1750.48,102.927 1749.98,105.26 1749,107.5C 1693.72,248.389 1638.72,389.389 1584,530.5C 1568.25,565.223 1541.25,583.556 1503,585.5C 1463.05,583.197 1435.72,563.53 1421,526.5C 1409.1,456.625 1370.6,408.125 1305.5,381C 1230.63,357.427 1165.79,373.594 1111,429.5C 1069.71,478.955 1057.37,534.955 1074,597.5C 1095.73,662.565 1139.9,703.398 1206.5,720C 1262.83,730.583 1313.5,718.25 1358.5,683C 1394.36,665.193 1428.02,668.526 1459.5,693C 1487.02,720.257 1494.86,752.424 1483,789.5C 1398.86,1004.75 1315.03,1220.08 1231.5,1435.5C 1040.28,1362.03 849.278,1287.87 658.5,1213C 614.19,1208.4 582.69,1226.23 564,1266.5C 555.263,1291.71 557.263,1316.05 570,1339.5C 613.769,1397.22 622.436,1459.89 596,1527.5C 562.889,1594.92 508.556,1630.25 433,1633.5C 352.843,1629.62 297.177,1590.95 266,1517.5C 244.533,1454.08 253.867,1395.75 294,1342.5C 312.728,1319.88 335.562,1302.72 362.5,1291C 382.416,1284.36 402.416,1278.02 422.5,1272C 460.66,1249.9 475.493,1217.07 467,1173.5C 461.028,1152.37 448.861,1135.87 430.5,1124C 286.849,1068.06 143.182,1012.23 -0.5,956.5C -0.5,955.833 -0.5,955.167 -0.5,954.5C 33.0571,763.132 110.224,592.132 231,441.5C 269.466,395.368 311.632,352.868 357.5,314C 392.214,286.285 427.214,258.952 462.5,232C 614.665,126.459 782.332,56.7925 965.5,23C 1035.11,10.2844 1105.11,2.45104 1175.5,-0.5 Z"/></g>
<g><path style="opacity:0.998" fill="#f7ac16" d="M 3408.5,1927.5 C 3214.17,1927.67 3019.83,1927.5 2825.5,1927C 2781.35,1911.57 2760.52,1880.4 2763,1833.5C 2766.67,1810.19 2777.5,1791.03 2795.5,1776C 2866.27,1731.11 2895.44,1666.95 2883,1583.5C 2867.54,1522.08 2830.71,1478.92 2772.5,1454C 2706.56,1431.26 2646.56,1441.59 2592.5,1485C 2534.36,1540.12 2517.53,1605.95 2542,1682.5C 2557.33,1722.5 2583.49,1753.33 2620.5,1775C 2658.19,1808.3 2665.03,1847.13 2641,1891.5C 2628.39,1909.38 2611.56,1921.22 2590.5,1927C 2431.83,1927.5 2273.17,1927.67 2114.5,1927.5C 2114.17,1927.5 2113.83,1927.5 2113.5,1927.5C 2113.67,1692.83 2113.5,1458.17 2113,1223.5C 2103.43,1177.27 2075.1,1152.27 2028,1148.5C 2000.88,1149.9 1978.54,1160.9 1961,1181.5C 1918.23,1250.13 1856.39,1279.96 1775.5,1271C 1696.86,1254.7 1648.03,1207.53 1629,1129.5C 1618.25,1062.4 1637.75,1005.9 1687.5,960C 1744.12,914.958 1806.46,905.291 1874.5,931C 1900.72,942.893 1923.22,959.726 1942,981.5C 1949.67,992.167 1957.33,1002.83 1965,1013.5C 1997.07,1044.07 2032.91,1049.24 2072.5,1029C 2095.16,1014.21 2108.66,993.374 2113,966.5C 2113.5,809.5 2113.67,652.5 2113.5,495.5C 2419.14,500.111 2686.81,601.611 2916.5,800C 3028.9,899.395 3118.73,1015.9 3186,1149.5C 3223.15,1223.96 3248.49,1302.3 3262,1384.5C 3264.88,1403.74 3266.88,1423.08 3268,1442.5C 3256.56,1598.08 3291.56,1742.08 3373,1874.5C 3384.35,1892.54 3396.18,1910.21 3408.5,1927.5 Z"/></g>
<g><path style="opacity:0.999" fill="#e42319" d="M 3408.5,1927.5 C 3425.5,1950.13 3443,1972.46 3461,1994.5C 3499.71,2037.54 3538.04,2080.87 3576,2124.5C 3587.01,2137.87 3596.01,2152.53 3603,2168.5C 3604.32,2172.93 3605.48,2177.26 3606.5,2181.5C 3606.5,2184.83 3606.5,2188.17 3606.5,2191.5C 3603.52,2206.47 3597.02,2219.8 3587,2231.5C 3568.54,2250.98 3548.04,2267.81 3525.5,2282C 3483.74,2307.21 3440.08,2328.71 3394.5,2346.5C 3390.65,2381.29 3403.31,2408.12 3432.5,2427C 3453.69,2443.92 3459.52,2465.09 3450,2490.5C 3440.11,2505.71 3426.61,2516.54 3409.5,2523C 3392.97,2529.38 3375.97,2534.05 3358.5,2537C 3363.84,2549.52 3370.34,2561.36 3378,2572.5C 3392.05,2590.22 3405.72,2608.22 3419,2626.5C 3428.09,2647.03 3424.59,2665.2 3408.5,2681C 3402.45,2686.05 3396.11,2690.72 3389.5,2695C 3372.83,2704.33 3356.17,2713.67 3339.5,2723C 3309.39,2741.54 3293.73,2768.54 3292.5,2804C 3297.04,2847.19 3301.88,2890.36 3307,2933.5C 3310.49,2970.82 3308.49,3007.82 3301,3044.5C 3283.27,3111.57 3241.44,3156.07 3175.5,3178C 3141.39,3189.3 3106.39,3195.96 3070.5,3198C 3013.15,3198.91 2955.81,3200.58 2898.5,3203C 2833.81,3206.09 2769.81,3214.42 2706.5,3228C 2681.89,3233.82 2657.89,3241.49 2634.5,3251C 2625.51,3255.16 2616.85,3259.82 2608.5,3265C 2571.34,3297.14 2542.18,3335.31 2521,3379.5C 2502.86,3424.01 2494.03,3470.35 2494.5,3518.5C 2496.43,3583.53 2505.6,3647.53 2522,3710.5C 2537.02,3769.55 2554.85,3827.72 2575.5,3885C 2447.87,3939.88 2316.53,3984.21 2181.5,4018C 2159.25,4022.98 2136.92,4027.48 2114.5,4031.5C 2114.33,3676.17 2114.5,3320.83 2115,2965.5C 2122.46,2924.4 2146.63,2899.57 2187.5,2891C 2220.25,2887.57 2247.08,2898.41 2268,2923.5C 2313.11,2994.79 2377.61,3023.96 2461.5,3011C 2524.72,2994.78 2568.22,2956.28 2592,2895.5C 2614.66,2819.65 2597.16,2754.82 2539.5,2701C 2485.85,2658.87 2426.52,2648.54 2361.5,2670C 2320.67,2686.33 2289.17,2713.5 2267,2751.5C 2234.69,2785.53 2197.52,2792.03 2155.5,2771C 2132.56,2755.97 2119.06,2734.8 2115,2707.5C 2114.5,2447.5 2114.33,2187.5 2114.5,1927.5C 2273.17,1927.67 2431.83,1927.5 2590.5,1927C 2611.56,1921.22 2628.39,1909.38 2641,1891.5C 2665.03,1847.13 2658.19,1808.3 2620.5,1775C 2583.49,1753.33 2557.33,1722.5 2542,1682.5C 2517.53,1605.95 2534.36,1540.12 2592.5,1485C 2646.56,1441.59 2706.56,1431.26 2772.5,1454C 2830.71,1478.92 2867.54,1522.08 2883,1583.5C 2895.44,1666.95 2866.27,1731.11 2795.5,1776C 2777.5,1791.03 2766.67,1810.19 2763,1833.5C 2760.52,1880.4 2781.35,1911.57 2825.5,1927C 3019.83,1927.5 3214.17,1927.67 3408.5,1927.5 Z"/></g>
<g><path style="opacity:0.999" fill="#0d3e61" d="M 2113.5,1927.5 C 2113.83,1927.5 2114.17,1927.5 2114.5,1927.5C 2114.33,2187.5 2114.5,2447.5 2115,2707.5C 2119.06,2734.8 2132.56,2755.97 2155.5,2771C 2197.52,2792.03 2234.69,2785.53 2267,2751.5C 2289.17,2713.5 2320.67,2686.33 2361.5,2670C 2426.52,2648.54 2485.85,2658.87 2539.5,2701C 2597.16,2754.82 2614.66,2819.65 2592,2895.5C 2568.22,2956.28 2524.72,2994.78 2461.5,3011C 2377.61,3023.96 2313.11,2994.79 2268,2923.5C 2247.08,2898.41 2220.25,2887.57 2187.5,2891C 2146.63,2899.57 2122.46,2924.4 2115,2965.5C 2114.5,3320.83 2114.33,3676.17 2114.5,4031.5C 2085.87,4036.33 2057.2,4039.66 2028.5,4041.5C 2017.83,4041.5 2007.17,4041.5 1996.5,4041.5C 1994.05,4040.53 1991.39,4040.19 1988.5,4040.5C 1975.81,3944.72 1952.31,3851.72 1918,3761.5C 1889.29,3688.02 1848.96,3622.02 1797,3563.5C 1734.67,3498.22 1660.17,3452.06 1573.5,3425C 1533.82,3412.66 1493.48,3403 1452.5,3396C 1424.22,3391.07 1395.89,3386.57 1367.5,3382.5C 1395.64,3295.25 1422.47,3207.58 1448,3119.5C 1454.81,3095.77 1460.48,3071.77 1465,3047.5C 1469.84,3006.66 1460.84,2969.33 1438,2935.5C 1428.05,2922.54 1417.71,2909.88 1407,2897.5C 1354.39,2842.22 1301.06,2787.56 1247,2733.5C 1140.26,2621.8 1046.92,2500.14 967,2368.5C 895.831,2249.14 842.497,2122.14 807,1987.5C 802.307,1967.87 797.807,1948.2 793.5,1928.5C 949.499,1927.33 1105.5,1927.17 1261.5,1928C 1302.21,1940.91 1323.55,1968.74 1325.5,2011.5C 1325.22,2037.55 1315.56,2059.38 1296.5,2077C 1287.68,2083.58 1278.68,2089.91 1269.5,2096C 1216.66,2140.23 1194.82,2196.73 1204,2265.5C 1217.91,2332.41 1256.74,2378.25 1320.5,2403C 1394.73,2424.99 1458.57,2408.15 1512,2352.5C 1558.4,2294.77 1567.73,2231.44 1540,2162.5C 1527.71,2136.21 1510.21,2114.05 1487.5,2096C 1478.17,2089.33 1468.83,2082.67 1459.5,2076C 1428.61,2043.8 1423.11,2007.63 1443,1967.5C 1455.24,1947.45 1472.74,1934.28 1495.5,1928C 1701.5,1927.5 1907.5,1927.33 2113.5,1927.5 Z"/></g>
</svg>
