<svg xmlns="http://www.w3.org/2000/svg" viewBox="0 0 110 110"><defs><style>.cls-1{fill:#f1f2f2;}.cls-2{fill:none;stroke:#f8ac17;stroke-miterlimit:10;stroke-width:3px;}.cls-3{fill:#f8ac17;}.cls-4{fill:#265526;}</style></defs><g id="Layer_2" data-name="Layer 2"><g id="Layer_1-2" data-name="Layer 1"><path class="cls-1" d="M50.32,99.85h0A48.82,48.82,0,0,1,1.5,51h0A48.82,48.82,0,0,1,50.32,2.21h0A48.82,48.82,0,0,1,99.14,51h0A48.82,48.82,0,0,1,50.32,99.85Z"/><circle class="cls-2" cx="50.32" cy="50.32" r="48.82"/><path class="cls-3" d="M77.49,37.45a7,7,0,0,1-13.88,1.17,8.88,8.88,0,0,0,2.51-6.19.65.65,0,0,0-.06-.33,6.75,6.75,0,0,1,4.4-1.62A7,7,0,0,1,77.49,37.45Z"/><path class="cls-3" d="M77.66,51.67v2.06H66.34V51a8.58,8.58,0,0,0-1.06-4.24,7.08,7.08,0,0,1,5.18-2.23A7.17,7.17,0,0,1,77.66,51.67Z"/><path class="cls-4" d="M57,42.4a10,10,0,1,1,10-10A10,10,0,0,1,57,42.4Zm0-18.27a8.28,8.28,0,1,0,8.28,8.28A8.28,8.28,0,0,0,57,24.13Z"/><path class="cls-4" d="M53.62,54.59H46.8V51a10,10,0,0,1,1-4.46l1.54.77A8.34,8.34,0,0,0,48.52,51v1.87h5.1Z"/><path class="cls-4" d="M67.2,54.59H57V52.87h8.51V51a7.68,7.68,0,0,0-1-3.82A8.34,8.34,0,0,0,57,42.49a8,8,0,0,0-5.59,2.22l-.25.24h-.35l0-.89-.57-.6A9.73,9.73,0,0,1,57,40.77a10,10,0,0,1,9.08,5.61A9.26,9.26,0,0,1,67.2,51Z"/><path class="cls-4" d="M46.56,65c-.27,0-.55,0-.82,0a11.31,11.31,0,0,1-6.61-19.82,11.44,11.44,0,0,1,8.21-2.73A11.3,11.3,0,0,1,46.56,65Zm0-20.89a9.5,9.5,0,0,0-6.27,2.35h0a9.58,9.58,0,1,0,7-2.32Zm0,17.53a5.44,5.44,0,0,1-.57,0,7.94,7.94,0,1,1,6.56-13.12,7.95,7.95,0,0,1-6,13.15Zm0-14.17a6.22,6.22,0,0,0-4.69,10.29,6.23,6.23,0,0,0,8.78.63,6.24,6.24,0,0,0,.62-8.77A6.15,6.15,0,0,0,47,47.45Z"/><rect class="cls-4" x="33.32" y="61.87" width="5.49" height="1.72" transform="translate(-32.43 39.39) rotate(-41.29)"/><path class="cls-4" d="M25.73,74.56l-.2,0a2.69,2.69,0,0,1-1.88-.93,2.75,2.75,0,0,1,.27-3.87l6.91-6a2.75,2.75,0,0,1,3.86.27,2.7,2.7,0,0,1,.67,2,2.74,2.74,0,0,1-.94,1.88l-6.9,6A2.76,2.76,0,0,1,25.73,74.56Zm6.9-9.76a1,1,0,0,0-.67.25l-6.91,6a1,1,0,0,0,.6,1.78.88.88,0,0,0,.74-.24l6.9-6a1,1,0,0,0,.35-.69,1,1,0,0,0-1-1.09Z"/><rect class="cls-4" x="34.24" y="30.46" width="1.73" height="10.47"/><rect class="cls-4" x="29.87" y="34.83" width="10.46" height="1.72"/><rect class="cls-4" x="67" y="60.23" width="1.73" height="7.73"/><rect class="cls-4" x="63.99" y="63.24" width="7.73" height="1.72"/><path class="cls-4" d="M67.2,53.73H65.48V51a7.68,7.68,0,0,0-1-3.82l1.5-.85A9.39,9.39,0,0,1,67.2,51Z"/></g></g></svg>