<svg width="45" height="45" viewBox="0 0 49 49" fill="none" xmlns="http://www.w3.org/2000/svg">
<mask id="mask0_1_225" style="mask-type:luminance" maskUnits="userSpaceOnUse" x="0" y="0" width="45" height="45">
<path d="M0.747513 0.780807H44.103V45H0.747513V0.780807Z" fill="white"/>
</mask>
<g mask="url(#mask0_1_225)">
<path d="M30.7839 44.9273V36.2505H35.7712C35.8524 36.2505 35.9341 36.2469 36.0153 36.2403C36.0965 36.2332 36.1771 36.2225 36.2577 36.2088C36.3377 36.1951 36.4165 36.1778 36.4948 36.157C36.573 36.1366 36.6495 36.1127 36.7249 36.0853C36.8008 36.0584 36.8744 36.0279 36.9462 35.9943C37.0186 35.9608 37.0881 35.9247 37.1564 35.885C37.2242 35.8454 37.2896 35.8032 37.3526 35.7579C37.4157 35.7132 37.4765 35.6654 37.5343 35.6151C37.5921 35.5648 37.6464 35.5124 37.6984 35.4575C37.7503 35.4026 37.7988 35.3457 37.8444 35.2867C37.8893 35.2272 37.9314 35.1667 37.9699 35.1037C38.0085 35.0412 38.0435 34.9771 38.0745 34.9115C38.106 34.846 38.1334 34.7789 38.1568 34.7113C38.1807 34.6431 38.2006 34.574 38.2164 34.5044C38.2321 34.4347 38.2444 34.3646 38.2526 34.2939C38.2602 34.2233 38.2643 34.1526 38.2643 34.0814V25.4041H44.0826L38.2643 16.7273C38.2561 16.4122 38.2374 16.098 38.2082 15.7839C38.179 15.4697 38.1393 15.1571 38.0891 14.845C38.0388 14.5328 37.9781 14.2222 37.9074 13.9137C37.8368 13.6046 37.7556 13.2976 37.6639 12.9931C37.5728 12.6881 37.4712 12.3856 37.3597 12.0862C37.2481 11.7863 37.1266 11.4899 36.9952 11.1961C36.8638 10.9028 36.7225 10.6125 36.5719 10.3264C36.4212 10.0397 36.2612 9.75752 36.0912 9.47896C35.9219 9.20039 35.7432 8.9269 35.5551 8.65748C35.3677 8.38807 35.1709 8.12373 34.9653 7.86448C34.7597 7.60523 34.546 7.35106 34.3235 7.10248C34.101 6.85391 33.8703 6.61143 33.6315 6.37454C33.3926 6.13766 33.1462 5.90687 32.8921 5.68219C32.6381 5.45801 32.377 5.23994 32.1084 5.02898C31.8398 4.81751 31.5641 4.61316 31.2821 4.41592C30.9994 4.21869 30.7109 4.02857 30.416 3.84608C30.1211 3.66308 29.8203 3.48821 29.5137 3.32046C29.2066 3.15271 28.8947 2.99309 28.5776 2.8416C28.2605 2.68961 27.9381 2.54626 27.6111 2.41053C27.2841 2.27532 26.9529 2.14823 26.6177 2.02928C26.2825 1.91033 25.9432 1.80053 25.6004 1.69886C25.2576 1.5972 24.9119 1.50417 24.5627 1.42029C24.214 1.33591 23.8625 1.26068 23.5086 1.19459C23.1547 1.128 22.7984 1.07056 22.441 1.02227C22.083 0.973974 21.7239 0.934324 21.3636 0.904332C21.0032 0.873832 20.6417 0.85299 20.2803 0.84079C19.9182 0.829098 19.5561 0.826048 19.194 0.832657C18.832 0.838757 18.4705 0.854007 18.1096 0.878915C17.7487 0.903315 17.3889 0.936866 17.0298 0.979566C16.6712 1.02277 16.3144 1.07412 15.9587 1.13512C15.6037 1.19612 15.2509 1.26576 14.9 1.34455C14.5496 1.42284 14.2015 1.51027 13.8569 1.60685C13.5118 1.70293 13.1708 1.80765 12.8326 1.92101C12.4951 2.03487 12.1616 2.15637 11.8317 2.28701C11.5023 2.41714 11.177 2.55592 10.8564 2.70232C10.5364 2.84923 10.221 3.00376 9.91092 3.16694C9.60082 3.32961 9.29656 3.4999 8.99756 3.67782C8.69914 3.85573 8.40656 4.04128 8.1204 4.23445C7.83366 4.42711 7.55393 4.62688 7.28121 4.83428C7.00848 5.04118 6.74218 5.25468 6.48347 5.4753C6.22477 5.69541 5.97365 5.92263 5.73013 6.15545C5.4866 6.38878 5.25125 6.6277 5.0235 6.87271C4.79574 7.11773 4.57674 7.36834 4.36592 7.62454C4.1551 7.88075 3.95304 8.14152 3.75916 8.40789C3.56586 8.67426 3.38132 8.9452 3.20612 9.22123C3.03092 9.49675 2.86507 9.77633 2.70856 10.0605C2.55146 10.3447 2.40488 10.6324 2.26706 10.9236C2.12982 11.2154 2.00193 11.5098 1.88455 11.8076C1.76658 12.1055 1.65913 12.4065 1.56102 12.7094C1.46349 13.0129 1.37589 13.3184 1.2988 13.6265C1.22172 13.934 1.15456 14.2436 1.09791 14.5547C1.04126 14.8658 0.995128 15.1784 0.959505 15.4916C0.923881 15.8052 0.898186 16.1194 0.883586 16.434C0.868986 16.7487 0.864314 17.0638 0.870738 17.3785C0.877162 17.6937 0.893514 18.0083 0.920961 18.3225C0.948409 18.6366 0.985784 18.9498 1.03426 19.2619C1.08214 19.574 1.14054 19.8851 1.20945 20.1942C1.27836 20.5038 1.35779 20.8108 1.44714 21.1163C1.53649 21.4213 1.63577 21.7243 1.74556 22.0242C1.85535 22.3246 1.97507 22.622 2.10413 22.9158C2.23377 23.2101 2.37276 23.5009 2.52168 23.7881C2.6706 24.0753 2.82886 24.3585 2.99705 24.6376C3.16465 24.9166 3.3416 25.1916 3.5279 25.4616C3.71419 25.732 3.90924 25.9974 4.11306 26.2576C5.08657 27.4471 5.94036 28.6987 6.67561 30.0117C7.41085 31.3242 8.01645 32.681 8.49299 34.0814C9.05479 35.8459 9.46241 37.6372 9.71586 39.4551C9.96932 41.2729 10.0657 43.0973 10.0055 44.9273H30.7839Z" fill="#0E4062"/>
</g>
<path d="M25.7972 15.2811C25.7972 15.1098 25.7885 14.939 25.7715 14.7682C25.754 14.5979 25.7277 14.4281 25.6933 14.2599C25.6588 14.0911 25.6156 13.9244 25.5636 13.7591C25.5122 13.5939 25.4521 13.4308 25.3837 13.2701C25.3154 13.1095 25.2389 12.9519 25.1548 12.7974C25.0701 12.6428 24.9779 12.4914 24.878 12.3439C24.7781 12.1965 24.6713 12.0532 24.5568 11.9139C24.4424 11.7746 24.3209 11.6399 24.1924 11.5098C24.0645 11.3801 23.9296 11.2551 23.7889 11.1356C23.6475 11.0162 23.501 10.9023 23.3485 10.794C23.1961 10.6857 23.0379 10.5841 22.8749 10.488C22.712 10.3919 22.5444 10.3025 22.3721 10.2196C22.2004 10.1362 22.024 10.06 21.8442 9.99085C21.6643 9.9212 21.4809 9.85868 21.2946 9.80378C21.1083 9.74837 20.9197 9.70008 20.7288 9.65941C20.5372 9.61874 20.3445 9.5857 20.15 9.55978C19.9556 9.53385 19.7599 9.51555 19.5637 9.50488C19.3669 9.4942 19.1707 9.49115 18.9739 9.49573C18.7771 9.5003 18.5808 9.5125 18.3852 9.53182C18.1896 9.55164 17.9957 9.57859 17.803 9.61366C17.6102 9.64823 17.4193 9.68991 17.2306 9.73973C17.0426 9.78904 16.8569 9.84546 16.6741 9.909C16.4913 9.97305 16.312 10.0437 16.1368 10.121C15.9611 10.1988 15.7899 10.2826 15.6235 10.3736C15.4565 10.4641 15.2941 10.5612 15.1376 10.6649C14.9805 10.7681 14.8287 10.8769 14.6833 10.9923C14.5373 11.1072 14.3977 11.2276 14.264 11.3532C14.1302 11.4793 14.0035 11.6099 13.8832 11.7451C13.7629 11.8808 13.6502 12.0211 13.5439 12.165C13.4382 12.3094 13.3395 12.4578 13.249 12.6098C13.1579 12.7613 13.0756 12.9168 13.0002 13.0749C12.9255 13.2335 12.8583 13.3942 12.7999 13.5578C12.7415 13.721 12.6913 13.8867 12.6498 14.054C12.6078 14.2212 12.5751 14.39 12.5505 14.5598C12.526 14.7301 12.5103 14.9004 12.5032 15.0717C12.4962 15.2425 12.498 15.4138 12.5085 15.5846C12.519 15.7559 12.5377 15.9262 12.5657 16.0955C12.5938 16.2652 12.63 16.433 12.6749 16.5997C12.7199 16.7665 12.773 16.9312 12.835 17.0938C12.8969 17.2565 12.9669 17.4161 13.0446 17.5737C13.1229 17.7308 13.2087 17.8848 13.3027 18.0353C13.3962 18.1857 13.4978 18.3321 13.6064 18.475C13.715 18.6178 13.8312 18.7561 13.9539 18.8898C14.0765 19.0235 14.2062 19.1521 14.3422 19.2761C14.4783 19.3997 14.6202 19.5181 14.7685 19.6309C14.9163 19.7438 15.0699 19.8505 15.2293 19.9517C15.3882 20.0524 15.5523 20.1469 15.7204 20.2354C15.8892 20.3238 16.0621 20.4051 16.239 20.4804V23.5965C16.239 23.6793 16.2437 23.7622 16.2536 23.8445C16.263 23.9269 16.277 24.0087 16.2951 24.0901C16.3138 24.1714 16.3371 24.2517 16.3652 24.331C16.3926 24.4103 16.4247 24.4881 16.4609 24.5644C16.4977 24.6411 16.5386 24.7158 16.583 24.789C16.628 24.8622 16.677 24.9329 16.7302 25.002C16.7833 25.0707 16.84 25.1372 16.9001 25.2013C16.9608 25.2653 17.0245 25.3264 17.0917 25.3848C17.1594 25.4438 17.2295 25.4992 17.3036 25.5515C17.3772 25.6044 17.4531 25.6537 17.5326 25.6995C17.612 25.7457 17.6932 25.7879 17.7773 25.8271C17.8614 25.8662 17.9472 25.9013 18.0354 25.9333C18.1236 25.9648 18.2129 25.9928 18.304 26.0167C18.3951 26.0411 18.4874 26.0609 18.5808 26.0772C18.6743 26.0934 18.7683 26.1051 18.8629 26.1133C18.9581 26.1214 19.0527 26.1255 19.1479 26.1255C19.2431 26.1255 19.3383 26.1214 19.4329 26.1133C19.5281 26.1051 19.6221 26.0934 19.7155 26.0772C19.809 26.0609 19.9012 26.0411 19.9923 26.0167C20.0834 25.9928 20.1728 25.9648 20.261 25.9333C20.3492 25.9013 20.435 25.8662 20.5191 25.8271C20.6026 25.7879 20.6844 25.7457 20.7638 25.6995C20.8426 25.6537 20.9191 25.6044 20.9927 25.5515C21.0663 25.4992 21.137 25.4438 21.2041 25.3848C21.2719 25.3264 21.3355 25.2653 21.3963 25.2013C21.4564 25.1372 21.5131 25.0707 21.5662 25.002C21.6193 24.9329 21.6678 24.8622 21.7128 24.789C21.7577 24.7158 21.7986 24.6411 21.8348 24.5644C21.8716 24.4881 21.9037 24.4103 21.9312 24.331C21.9592 24.2517 21.982 24.1714 22.0007 24.0901C22.0194 24.0087 22.0334 23.9269 22.0427 23.8445C22.0521 23.7622 22.0573 23.6793 22.0573 23.5965V20.4804C22.3359 20.3619 22.6039 20.2277 22.8615 20.0773C23.1184 19.9263 23.3626 19.7611 23.5932 19.5806C23.8239 19.4002 24.0388 19.207 24.2385 19.0001C24.4377 18.7937 24.6199 18.5761 24.7846 18.3474C24.9487 18.1186 25.0941 17.8812 25.2208 17.6347C25.347 17.3882 25.4527 17.1355 25.5385 16.8763C25.6243 16.617 25.6886 16.3537 25.7318 16.0868C25.7756 15.8194 25.7972 15.551 25.7972 15.2811Z" fill="#FFDF66"/>
<path d="M22.0573 21.066V23.5965C22.0573 23.6793 22.0521 23.7622 22.0427 23.8445C22.0334 23.9269 22.0194 24.0087 22.0007 24.0901C21.982 24.1714 21.9592 24.2517 21.9312 24.331C21.9037 24.4103 21.8716 24.4881 21.8348 24.5643C21.7986 24.6411 21.7577 24.7158 21.7128 24.789C21.6678 24.8622 21.6193 24.9329 21.5662 25.002C21.5131 25.0706 21.4564 25.1372 21.3963 25.2013C21.3355 25.2653 21.2719 25.3263 21.2041 25.3848C21.137 25.4438 21.0663 25.4992 20.9927 25.5515C20.9191 25.6044 20.8426 25.6537 20.7638 25.6995C20.6844 25.7457 20.6026 25.7879 20.5191 25.827C20.435 25.8662 20.3492 25.9013 20.261 25.9333C20.1728 25.9648 20.0834 25.9928 19.9923 26.0167C19.9012 26.0411 19.809 26.0609 19.7155 26.0771C19.6221 26.0934 19.5281 26.1051 19.4329 26.1132C19.3383 26.1214 19.2431 26.1254 19.1479 26.1254C19.0527 26.1254 18.9581 26.1214 18.8629 26.1132C18.7683 26.1051 18.6743 26.0934 18.5808 26.0771C18.4874 26.0609 18.3951 26.0411 18.304 26.0167C18.2129 25.9928 18.1236 25.9648 18.0354 25.9333C17.9472 25.9013 17.8614 25.8662 17.7773 25.827C17.6932 25.7879 17.612 25.7457 17.5326 25.6995C17.4531 25.6537 17.3772 25.6044 17.3036 25.5515C17.2295 25.4992 17.1594 25.4438 17.0917 25.3848C17.0245 25.3263 16.9608 25.2653 16.9001 25.2013C16.84 25.1372 16.7833 25.0706 16.7302 25.002C16.677 24.9329 16.628 24.8622 16.583 24.789C16.5386 24.7158 16.4977 24.6411 16.4609 24.5643C16.4247 24.4881 16.3926 24.4103 16.3652 24.331C16.3371 24.2517 16.3138 24.1714 16.2957 24.0901C16.277 24.0087 16.263 23.9269 16.2536 23.8445C16.2437 23.7622 16.239 23.6793 16.239 23.5965V21.066H22.0573Z" fill="#6C8199"/>
<mask id="mask1_1_225" style="mask-type:luminance" maskUnits="userSpaceOnUse" x="0" y="0" width="45" height="45">
<path d="M0 0H45V45H0V0Z" fill="white"/>
</mask>
<g mask="url(#mask1_1_225)">
<path d="M39.0953 34.0814V26.1275H44.0826C44.1188 26.127 44.1544 26.1249 44.1906 26.1209C44.2262 26.1163 44.2618 26.1102 44.2969 26.1016C44.3313 26.0934 44.3658 26.0833 44.3991 26.0711C44.4324 26.0589 44.4651 26.0446 44.496 26.0289C44.5276 26.0131 44.5573 25.9953 44.586 25.976C44.6146 25.9567 44.6414 25.9358 44.6671 25.9135C44.6928 25.8911 44.7168 25.8677 44.7384 25.8428C44.7606 25.8174 44.7804 25.7915 44.7985 25.764C44.8166 25.7366 44.8324 25.7086 44.8458 25.6791C44.8598 25.6502 44.8715 25.6202 44.8809 25.5897C44.8896 25.5597 44.8966 25.5287 44.9013 25.4971C44.906 25.4661 44.9083 25.4346 44.9083 25.4031C44.9083 25.3716 44.906 25.3406 44.9013 25.3091C44.8966 25.2781 44.8896 25.247 44.8797 25.2165C44.8704 25.186 44.8587 25.1566 44.8452 25.1276C44.8312 25.0981 44.8155 25.0701 44.7974 25.0427L39.0953 16.5031C39.0848 16.2342 39.0661 15.9663 39.0404 15.6984C39.0147 15.43 38.982 15.1632 38.9417 14.8963C38.9014 14.6299 38.8541 14.3641 38.7992 14.0997C38.7443 13.8349 38.6824 13.5716 38.6135 13.3098C38.5446 13.0475 38.4681 12.7872 38.3846 12.528C38.3016 12.2692 38.2111 12.012 38.1136 11.7568C38.0166 11.5016 37.9121 11.2485 37.8011 10.9979C37.6902 10.7467 37.5722 10.4987 37.4472 10.2526C37.3229 10.0066 37.1915 9.76311 37.0531 9.52266C36.9152 9.28222 36.771 9.04432 36.6197 8.80998C36.4691 8.57512 36.312 8.34383 36.1479 8.11559C35.9844 7.88735 35.815 7.66266 35.6392 7.44153C35.4634 7.22041 35.2812 7.00335 35.0938 6.78985C34.9063 6.57584 34.7124 6.3664 34.5133 6.16053C34.3147 5.95516 34.1097 5.75386 33.8995 5.55662C33.6899 5.35939 33.4744 5.16673 33.2536 4.97813C33.0329 4.79005 32.8074 4.60654 32.5768 4.42761C32.3461 4.24867 32.1107 4.07431 31.8707 3.90504C31.6301 3.73576 31.386 3.57157 31.1366 3.41246C30.8873 3.25335 30.6344 3.09932 30.3769 2.95089C30.1193 2.80245 29.8577 2.6591 29.5926 2.52083C29.3274 2.38308 29.0582 2.25091 28.7855 2.12382C28.5134 1.99725 28.2371 1.87626 27.958 1.76087C27.6788 1.64548 27.3968 1.53568 27.1118 1.43198C26.8268 1.32828 26.5389 1.23068 26.2486 1.13867C25.9578 1.04666 25.6652 0.961257 25.3697 0.881449C25.0748 0.80164 24.7776 0.727931 24.4786 0.660322C24.1796 0.593222 23.8788 0.531713 23.5763 0.476813C23.2738 0.421404 22.9695 0.372604 22.6647 0.330412C22.3593 0.287712 22.0532 0.25162 21.7461 0.221628C21.4389 0.191636 21.1311 0.168252 20.8228 0.150969C20.5144 0.134194 20.2055 0.12301 19.8966 0.118944C19.5876 0.114369 19.2787 0.116402 18.9698 0.124535C18.6608 0.133177 18.3525 0.147919 18.0441 0.168761C17.7358 0.190111 17.4286 0.217561 17.122 0.251111C16.8154 0.28517 16.51 0.32482 16.2057 0.371587C15.9009 0.417846 15.5984 0.470713 15.2965 0.529171C14.9951 0.588138 14.6955 0.653206 14.3971 0.724881C14.0993 0.796048 13.8032 0.873315 13.5095 0.956682C13.2157 1.04056 12.9249 1.13003 12.6358 1.22559C12.3467 1.32116 12.0606 1.42232 11.7773 1.52958C11.4941 1.63735 11.2138 1.7502 10.9364 1.86915C10.6596 1.9881 10.3857 2.11264 10.1153 2.24277C9.84492 2.37342 9.57803 2.50914 9.31524 2.65046C9.05244 2.79127 8.79315 2.93818 8.53853 3.09017C8.28333 3.24216 8.03279 3.39924 7.78635 3.5614C7.53991 3.72356 7.29813 3.8908 7.06103 4.06313C6.82335 4.23545 6.59092 4.41286 6.36316 4.59434C6.13599 4.77632 5.91349 4.96288 5.69566 5.15402C5.47842 5.34515 5.26643 5.54035 5.0597 5.74013C4.85296 5.94042 4.65149 6.14426 4.45585 6.35217C4.26021 6.56059 4.07042 6.77256 3.88646 6.98861C3.7025 7.20465 3.52438 7.42425 3.35211 7.64741C3.17983 7.87057 3.01398 8.0978 2.85455 8.32756C2.69453 8.55784 2.54153 8.79117 2.39436 9.02805C2.2472 9.26443 2.10704 9.50386 1.9733 9.74633C1.83899 9.9883 1.71226 10.2333 1.59137 10.4809C1.47107 10.7284 1.35719 10.9785 1.25032 11.2307C1.14345 11.4828 1.04359 11.7375 0.950153 11.9937C0.857298 12.2499 0.771452 12.5081 0.692613 12.7684C0.61319 13.0282 0.541359 13.2894 0.47712 13.5528C0.412297 13.8156 0.354482 14.0794 0.304259 14.3447C0.254036 14.6101 0.211404 14.8765 0.175197 15.1433C0.139574 15.4107 0.111542 15.6781 0.0899344 15.9465C0.0116797 16.889 0.0245273 17.8299 0.128478 18.7708C0.231844 19.7113 0.425729 20.6374 0.708381 21.5494C0.991616 22.4619 1.36011 23.3469 1.81446 24.205C2.26822 25.063 2.80199 25.8825 3.41459 26.6623C4.36124 27.8162 5.19168 29.0301 5.9059 30.3045C6.62012 31.5789 7.2082 32.8955 7.67014 34.2548C8.22318 35.9841 8.62613 37.7394 8.87783 39.5206C9.13011 41.3024 9.22881 43.0902 9.1745 44.8841L10.8365 44.971C10.9031 43.0963 10.8068 41.2286 10.548 39.3666C10.2888 37.5051 9.86945 35.671 9.29071 33.8644C8.80366 32.4288 8.18346 31.038 7.4307 29.6924C6.67735 28.3464 5.80137 27.0643 4.80274 25.8454C4.65032 25.6507 4.50374 25.4529 4.36183 25.2526C4.21992 25.0524 4.08385 24.849 3.95245 24.6431C3.82105 24.4373 3.69549 24.2288 3.57519 24.0179C3.45489 23.8074 3.34043 23.5939 3.23122 23.3789C3.12202 23.1634 3.01865 22.9458 2.92054 22.7262C2.82301 22.5071 2.73074 22.2855 2.64431 22.0628C2.55846 21.8397 2.47787 21.615 2.40312 21.3883C2.32896 21.162 2.26004 20.9348 2.19756 20.7056C2.13507 20.4768 2.07842 20.2465 2.02762 20.0152C1.97681 19.7839 1.93243 19.5521 1.89388 19.3188C1.85534 19.086 1.82322 18.8522 1.79694 18.6178C1.77066 18.384 1.75022 18.1491 1.7362 17.9138C1.72219 17.6789 1.71401 17.4436 1.71226 17.2082C1.71051 16.9728 1.71518 16.7375 1.72569 16.5026C1.7362 16.2673 1.75256 16.0324 1.77533 15.7976C1.79811 15.5632 1.82731 15.3294 1.86235 15.0961C1.89739 14.8622 1.93827 14.6299 1.98557 14.3981C2.03229 14.1663 2.08543 13.9355 2.145 13.7058C2.20398 13.476 2.2688 13.2478 2.34005 13.0205C2.4113 12.7933 2.48839 12.5681 2.57131 12.3439C2.65424 12.1198 2.74301 11.8976 2.83703 11.677C2.93163 11.4564 3.03208 11.2378 3.13778 11.0212C3.24349 10.8047 3.35503 10.5902 3.47241 10.3782C3.58921 10.1657 3.71185 9.95577 3.84032 9.74887C3.96822 9.54147 4.10137 9.33661 4.24036 9.13429C4.37876 8.93249 4.52301 8.73322 4.67193 8.53649C4.82143 8.34027 4.9756 8.14711 5.13445 7.95648C5.29388 7.76636 5.45798 7.57929 5.62675 7.39528C5.79611 7.21177 5.96955 7.03131 6.14826 6.85441C6.32637 6.6775 6.50975 6.50416 6.69721 6.33438C6.88467 6.16459 7.07622 5.99887 7.27244 5.83672C7.46866 5.67456 7.66897 5.51646 7.87337 5.36193C8.07776 5.2079 8.28566 5.05743 8.49824 4.91154C8.71022 4.76565 8.9263 4.62382 9.14588 4.48657C9.36546 4.34881 9.58855 4.21614 9.81513 4.08753C10.0417 3.95841 10.2718 3.83438 10.5048 3.71492C10.7378 3.59546 10.9738 3.48057 11.2126 3.37027C11.4521 3.25996 11.6938 3.15473 11.9385 3.05408C12.1826 2.95343 12.4297 2.85735 12.6796 2.76636C12.929 2.67537 13.1807 2.58946 13.4347 2.50863C13.6887 2.42781 13.9451 2.35156 14.2032 2.2809C14.4608 2.21024 14.7207 2.14416 14.9823 2.08366C15.2439 2.02317 15.5067 1.96776 15.7707 1.91744C16.0352 1.86762 16.3009 1.82238 16.5672 1.78273C16.8341 1.74308 17.1016 1.70851 17.3702 1.67954C17.6389 1.65056 17.9081 1.62667 18.1773 1.60786C18.4471 1.58956 18.7175 1.57634 18.9879 1.56872C19.2583 1.56059 19.5287 1.55855 19.799 1.56109C20.07 1.56414 20.3398 1.57228 20.6102 1.586C20.88 1.59922 21.1498 1.61803 21.419 1.64243C21.6883 1.66683 21.9563 1.69631 22.2244 1.73088C22.4918 1.76595 22.7581 1.8056 23.0238 1.85136C23.289 1.8966 23.5535 1.94692 23.8163 2.00284C24.0791 2.05876 24.3402 2.11976 24.6 2.18584C24.8599 2.25192 25.1174 2.32309 25.3732 2.39934C25.6296 2.47559 25.8831 2.55693 26.1348 2.64334C26.3865 2.72976 26.6358 2.82075 26.8829 2.91683C27.1299 3.0129 27.374 3.11406 27.6158 3.2198C27.8575 3.32604 28.0964 3.43635 28.3323 3.55174C28.5683 3.66713 28.8007 3.78659 29.0308 3.91114C29.2603 4.03568 29.4863 4.1648 29.7094 4.29798C29.9325 4.43167 30.1514 4.56943 30.3675 4.71126C30.583 4.85359 30.795 4.99948 31.0029 5.14995C31.2114 5.30042 31.4152 5.45495 31.6155 5.61356C32.0617 5.96482 32.4857 6.33539 32.8886 6.72427C33.2916 7.11366 33.6706 7.51931 34.0256 7.94225C34.3807 8.36518 34.7107 8.80235 35.0143 9.25426C35.318 9.70668 35.5948 10.1708 35.8442 10.6471C36.0941 11.1239 36.3149 11.6104 36.5076 12.1065C36.6997 12.6027 36.8627 13.1059 36.9964 13.6168C37.1296 14.1272 37.2329 14.6426 37.3059 15.1622C37.3789 15.6822 37.4216 16.2037 37.4332 16.7273C37.4356 16.8849 37.494 17.0247 37.6078 17.1467L42.636 24.6813H38.2643C38.2099 24.6813 38.1556 24.6858 38.1025 24.695C38.0488 24.7041 37.9968 24.7179 37.9466 24.7362C37.8958 24.7545 37.8479 24.7768 37.8023 24.8033C37.7573 24.8297 37.7153 24.8597 37.6768 24.8932C37.6382 24.9268 37.6038 24.9629 37.5734 25.0025C37.543 25.0422 37.5173 25.0839 37.4963 25.1276C37.4759 25.1713 37.4601 25.2165 37.449 25.2633C37.4385 25.3096 37.4332 25.3568 37.4332 25.4041V34.0814C37.4332 34.1765 37.4227 34.2705 37.4011 34.3636C37.3801 34.4566 37.3486 34.5471 37.3065 34.6345C37.265 34.7224 37.2137 34.8058 37.1529 34.8846C37.0922 34.9639 37.0233 35.0366 36.9462 35.1037C36.8691 35.1708 36.785 35.2308 36.6945 35.2836C36.604 35.3365 36.5076 35.3812 36.4072 35.4173C36.3061 35.4539 36.2022 35.4814 36.0953 35.4997C35.9884 35.518 35.8798 35.5276 35.7712 35.5276H26.6282V36.9739H29.9529V44.9273H31.6155V36.9739H35.7712C35.8798 36.9739 35.9884 36.9688 36.0971 36.9596C36.2051 36.9505 36.3126 36.9368 36.4194 36.9179C36.5263 36.8996 36.632 36.8768 36.7359 36.8493C36.8405 36.8214 36.9427 36.7898 37.0431 36.7532C37.1436 36.7172 37.2423 36.677 37.338 36.6323C37.4344 36.5875 37.5273 36.5387 37.6178 36.4864C37.7083 36.4335 37.7959 36.3771 37.88 36.3171C37.9641 36.2571 38.0447 36.1936 38.1218 36.1265C38.1988 36.0594 38.2718 35.9892 38.3408 35.916C38.4097 35.8428 38.4745 35.7671 38.5352 35.6883C38.596 35.6095 38.6514 35.5282 38.7028 35.4448C38.7542 35.3614 38.8009 35.2755 38.8424 35.1881C38.8839 35.1006 38.9207 35.0117 38.9522 34.9207C38.9837 34.8302 39.0106 34.7387 39.0316 34.6457C39.0526 34.5527 39.069 34.4591 39.0795 34.3646C39.09 34.2705 39.0953 34.176 39.0953 34.0814Z" fill="#E5281E"/>
</g>
<path d="M28.2908 14.5583H30.7839V16.0045H28.2908V14.5583Z" fill="#E5281E"/>
<path d="M18.3169 5.15811H19.9795V7.32718H18.3169V5.15811Z" fill="#E5281E"/>
<path d="M10.3349 8.63155L11.5105 7.60928L13.2735 9.14294L12.098 10.1657L10.3349 8.63155Z" fill="#E5281E"/>
<path d="M25.024 21.4152L26.199 20.393L27.9621 21.9266L26.7871 22.9494L25.024 21.4152Z" fill="#E5281E"/>
<path d="M10.3361 21.9281L12.0991 20.394L13.2747 21.4167L11.5116 22.9504L10.3361 21.9281Z" fill="#E5281E"/>
<path d="M25.0223 9.14143L26.7853 7.60727L27.9609 8.63004L26.1979 10.1637L25.0223 9.14143Z" fill="#E5281E"/>
<path d="M19.1479 26.8504C19.2705 26.8504 19.3926 26.8448 19.5147 26.8341C19.6361 26.8234 19.757 26.8077 19.8773 26.7868C19.997 26.766 20.1156 26.74 20.233 26.7085C20.3498 26.6775 20.4654 26.6419 20.5781 26.6008C20.6914 26.5601 20.8018 26.5143 20.9098 26.464C21.0173 26.4137 21.1224 26.3593 21.224 26.2998C21.3256 26.2409 21.4243 26.1773 21.5189 26.1097C21.6135 26.0421 21.704 25.9704 21.7905 25.8952C21.8769 25.82 21.9592 25.7412 22.0369 25.6588C22.1146 25.5765 22.1876 25.4911 22.2553 25.4026C22.3237 25.3142 22.3861 25.2232 22.444 25.1291C22.5018 25.0351 22.5543 24.939 22.6016 24.8409C22.6484 24.7423 22.6898 24.6421 22.7254 24.5405C22.7611 24.4383 22.7908 24.3351 22.8148 24.2309C22.8393 24.1267 22.8574 24.0215 22.8697 23.9152C22.8819 23.8095 22.8878 23.7032 22.8884 23.5965V20.914C23.0063 20.855 23.122 20.793 23.2358 20.7285C23.3497 20.6634 23.4619 20.5963 23.5711 20.5261C23.6808 20.4565 23.7883 20.3838 23.8934 20.3086C23.9985 20.2338 24.1013 20.1561 24.2018 20.0763C24.3022 19.9959 24.3997 19.9141 24.4949 19.8292C24.5901 19.7448 24.6824 19.6579 24.7723 19.5689C24.8617 19.48 24.9487 19.389 25.0328 19.296C25.1169 19.2029 25.1975 19.1079 25.2757 19.0108C25.3534 18.9137 25.4287 18.8151 25.5006 18.7144C25.5724 18.6143 25.6407 18.5121 25.7061 18.4084C25.7715 18.3047 25.834 18.1995 25.8924 18.0927C25.9514 17.986 26.0069 17.8777 26.0589 17.7684C26.1108 17.6591 26.1599 17.5488 26.2049 17.437C26.2498 17.3256 26.2913 17.2128 26.3298 17.0989C26.3678 16.9856 26.4022 16.8712 26.4332 16.7558C26.4641 16.6404 26.491 16.5245 26.515 16.4081C26.5383 16.2917 26.5582 16.1748 26.5745 16.0573C26.5909 15.9394 26.6037 15.822 26.6125 15.7035C26.6212 15.5856 26.6265 15.4677 26.6283 15.3492C26.6294 15.2308 26.6271 15.1123 26.6212 14.9944C26.6154 14.876 26.6055 14.758 26.5926 14.6401C26.5792 14.5227 26.5623 14.4053 26.5412 14.2883C26.5208 14.1714 26.4963 14.055 26.4682 13.9391C26.4402 13.8232 26.4087 13.7083 26.3736 13.5939C26.3386 13.4796 26.2995 13.3662 26.2574 13.2539C26.2148 13.141 26.1692 13.0297 26.1196 12.9194C26.0705 12.8091 26.018 12.7003 25.9619 12.5925C25.9053 12.4848 25.8463 12.378 25.7832 12.2733C25.7201 12.1681 25.6542 12.0649 25.5852 11.9632C25.5157 11.861 25.4433 11.7609 25.368 11.6628C25.2921 11.5642 25.2138 11.4676 25.1321 11.373C25.0503 11.2785 24.9656 11.1854 24.8786 11.095C24.791 11.0045 24.7005 10.916 24.6076 10.8296C24.5148 10.7432 24.419 10.6588 24.3209 10.577C24.2228 10.4951 24.1218 10.4158 24.0184 10.3391C23.9156 10.2618 23.8099 10.1871 23.7019 10.1154C23.5938 10.0432 23.484 9.97357 23.3713 9.90698C23.2592 9.83988 23.1447 9.77583 23.0285 9.71432C22.9123 9.65332 22.7943 9.59435 22.674 9.53895C22.5543 9.48303 22.4329 9.43016 22.3096 9.38034C22.1864 9.33002 22.0614 9.28325 21.9353 9.23903C21.8092 9.1948 21.6813 9.15363 21.5528 9.1155C21.4237 9.07788 21.2941 9.04281 21.1627 9.01078C21.0319 8.97876 20.8999 8.95029 20.7673 8.92487C20.6342 8.89895 20.501 8.87658 20.3667 8.85727C20.2324 8.83795 20.0975 8.82219 19.9626 8.80897C19.8271 8.79627 19.6916 8.78661 19.5561 8.78C19.42 8.77339 19.284 8.77034 19.1479 8.77034C19.0118 8.77034 18.8764 8.77339 18.7403 8.78C18.6048 8.78661 18.4693 8.79627 18.3338 8.80897C18.1983 8.82219 18.064 8.83795 17.9297 8.85727C17.7954 8.87658 17.6617 8.89895 17.5291 8.92487C17.3965 8.95029 17.2645 8.97876 17.1331 9.01078C17.0023 9.04281 16.8727 9.07788 16.7436 9.1155C16.6151 9.15363 16.4872 9.1948 16.3611 9.23903C16.235 9.28325 16.11 9.33002 15.9868 9.38034C15.8635 9.43016 15.7421 9.48303 15.6218 9.53895C15.5021 9.59435 15.3841 9.65332 15.2679 9.71432C15.1511 9.77583 15.0372 9.83988 14.9245 9.90698C14.8124 9.97357 14.7026 10.0432 14.5945 10.1154C14.4865 10.1871 14.3808 10.2618 14.278 10.3391C14.1746 10.4158 14.0736 10.4951 13.9755 10.577C13.8774 10.6588 13.7816 10.7432 13.6888 10.8296C13.5953 10.916 13.5054 11.0045 13.4178 11.095C13.3308 11.1854 13.2461 11.2785 13.1643 11.373C13.0826 11.4676 13.0043 11.5642 12.9284 11.6628C12.8531 11.7609 12.7807 11.861 12.7112 11.9632C12.6417 12.0649 12.5757 12.1681 12.5132 12.2733C12.4501 12.378 12.3906 12.4848 12.3345 12.5925C12.2784 12.7003 12.2259 12.8091 12.1762 12.9194C12.1272 13.0297 12.0816 13.141 12.039 13.2539C11.9969 13.3662 11.9578 13.4796 11.9228 13.5939C11.8877 13.7083 11.8562 13.8232 11.8282 13.9391C11.8001 14.055 11.7756 14.1714 11.7552 14.2883C11.7341 14.4053 11.7172 14.5227 11.7038 14.6401C11.6903 14.758 11.681 14.876 11.6752 14.9944C11.6693 15.1123 11.667 15.2308 11.6682 15.3492C11.6699 15.4677 11.6752 15.5856 11.6839 15.7035C11.6927 15.822 11.7055 15.9394 11.7219 16.0573C11.7382 16.1748 11.7581 16.2917 11.7814 16.4081C11.8054 16.5245 11.8323 16.6404 11.8632 16.7558C11.8942 16.8712 11.9286 16.9856 11.9666 17.0989C12.0045 17.2128 12.0466 17.3256 12.0915 17.437C12.1365 17.5488 12.185 17.6591 12.2375 17.7684C12.2895 17.8777 12.345 17.986 12.4034 18.0927C12.4624 18.1995 12.5249 18.3047 12.5903 18.4084C12.6557 18.5121 12.724 18.6143 12.7958 18.7144C12.8677 18.8151 12.9424 18.9137 13.0207 19.0108C13.0989 19.1079 13.1795 19.2029 13.2636 19.296C13.3477 19.389 13.4347 19.48 13.5241 19.5689C13.614 19.6579 13.7063 19.7448 13.8015 19.8292C13.8967 19.9141 13.9942 19.9959 14.0946 20.0763C14.1951 20.1561 14.2979 20.2338 14.403 20.3086C14.5081 20.3838 14.6156 20.4565 14.7248 20.5261C14.8346 20.5963 14.9467 20.6634 15.0606 20.7285C15.1744 20.793 15.2901 20.855 15.408 20.914V23.5965C15.408 23.7032 15.4145 23.8095 15.4267 23.9152C15.439 24.0215 15.4571 24.1267 15.481 24.2309C15.5056 24.3351 15.5353 24.4383 15.571 24.5405C15.6066 24.6421 15.6481 24.7423 15.6948 24.8409C15.7421 24.939 15.794 25.0351 15.8519 25.1291C15.9097 25.2232 15.9728 25.3142 16.0411 25.4026C16.1088 25.4911 16.1818 25.5765 16.2595 25.6588C16.3372 25.7412 16.4195 25.82 16.5059 25.8952C16.5924 25.9704 16.6829 26.0421 16.7775 26.1097C16.8721 26.1773 16.9702 26.2409 17.0724 26.2998C17.174 26.3593 17.2786 26.4137 17.3866 26.464C17.4946 26.5143 17.605 26.5601 17.7183 26.6008C17.831 26.6419 17.9461 26.6775 18.0634 26.7085C18.1802 26.74 18.2988 26.766 18.4191 26.7868C18.5388 26.8077 18.6603 26.8234 18.7817 26.8341C18.9038 26.8448 19.0259 26.8504 19.1479 26.8504ZM19.1479 25.4041C18.9464 25.4036 18.7485 25.3782 18.5552 25.3279C18.3619 25.2771 18.1802 25.2039 18.0115 25.1078C17.8427 25.0112 17.6932 24.8963 17.5624 24.7621C17.4321 24.6279 17.3259 24.4805 17.2447 24.3199H21.0517C20.97 24.4805 20.8643 24.6279 20.734 24.7621C20.6032 24.8963 20.4537 25.0112 20.2849 25.1078C20.1156 25.2039 19.9345 25.2771 19.7412 25.3279C19.5479 25.3782 19.35 25.4036 19.1479 25.4041ZM21.2257 22.8736H17.0701V21.7888H21.2257V22.8736ZM13.3302 15.2811C13.3302 15.1312 13.3378 14.9817 13.3524 14.8323C13.3676 14.6833 13.3903 14.5349 13.4207 14.3875C13.4511 14.2395 13.489 14.0936 13.534 13.9488C13.579 13.8044 13.6315 13.6616 13.6917 13.5213C13.7512 13.3804 13.8178 13.2427 13.892 13.1075C13.9656 12.9717 14.0462 12.8396 14.1338 12.7105C14.2208 12.5813 14.3148 12.4558 14.4147 12.3338C14.5151 12.2118 14.6214 12.0938 14.7335 11.9805C14.8456 11.8666 14.9636 11.7573 15.0868 11.6526C15.2101 11.5484 15.3385 11.4488 15.4723 11.3537C15.6054 11.2592 15.7438 11.1697 15.8863 11.0858C16.0288 11.0019 16.1754 10.9237 16.3261 10.851C16.4767 10.7783 16.6309 10.7112 16.788 10.6507C16.9457 10.5897 17.1057 10.5353 17.2692 10.4865C17.4321 10.4382 17.5974 10.3965 17.7644 10.3604C17.932 10.3248 18.1008 10.2959 18.2708 10.2735C18.4413 10.2506 18.6124 10.2349 18.7841 10.2252C18.9564 10.216 19.1281 10.2135 19.3003 10.2171C19.4726 10.2211 19.6443 10.2318 19.8154 10.2491C19.9865 10.2659 20.1565 10.2898 20.3252 10.3203C20.494 10.3503 20.6604 10.3874 20.8257 10.4306C20.9904 10.4738 21.1528 10.5231 21.3128 10.579C21.4728 10.6344 21.6293 10.6964 21.7829 10.7645C21.9365 10.8322 22.0866 10.9059 22.2326 10.9852C22.3785 11.065 22.5205 11.1499 22.6577 11.2398C22.7949 11.3303 22.9275 11.4259 23.0554 11.5265C23.1827 11.6272 23.3053 11.7324 23.4221 11.8427C23.5389 11.953 23.6499 12.0674 23.755 12.1859C23.8601 12.3048 23.9594 12.4268 24.0523 12.5534C24.1445 12.6794 24.231 12.8091 24.3104 12.9423C24.3898 13.0754 24.4622 13.2112 24.5276 13.3494C24.5936 13.4882 24.652 13.629 24.7028 13.7719C24.7542 13.9152 24.798 14.0601 24.8342 14.2065C24.871 14.3529 24.8996 14.5003 24.9212 14.6493C24.9429 14.7977 24.9563 14.9471 24.9627 15.0971C24.9685 15.2466 24.9668 15.3965 24.958 15.546C24.9487 15.6959 24.9318 15.8449 24.9078 15.9933C24.8833 16.1412 24.8512 16.2886 24.812 16.4345C24.7723 16.5804 24.7256 16.7243 24.6719 16.8666C24.6176 17.009 24.5563 17.1487 24.4879 17.2865C24.4196 17.4243 24.3443 17.5585 24.2625 17.6906C24.1802 17.8223 24.0914 17.9504 23.9962 18.0754C23.901 18.2 23.7994 18.321 23.6919 18.4384C23.5845 18.5553 23.4712 18.6677 23.3521 18.7759C23.2329 18.8847 23.1085 18.9879 22.9789 19.0865C22.8492 19.1851 22.7149 19.2787 22.5754 19.3671C22.4364 19.4556 22.2927 19.5379 22.1455 19.6152C21.9978 19.6925 21.8465 19.7636 21.6912 19.8292C21.5761 19.8805 21.4798 19.9512 21.4021 20.0412C21.325 20.1317 21.2742 20.2318 21.2509 20.3426H17.0455C17.0222 20.2318 16.9714 20.1317 16.8943 20.0412C16.8166 19.9512 16.7203 19.8805 16.6046 19.8292C16.3611 19.726 16.1263 19.6086 15.9009 19.4769C15.6761 19.3453 15.4623 19.2004 15.2603 19.0428C15.0588 18.8847 14.8702 18.7159 14.6956 18.535C14.5209 18.3545 14.3615 18.1639 14.2179 17.9641C14.0736 17.7638 13.9463 17.5559 13.8353 17.3404C13.725 17.1249 13.6321 16.9037 13.5574 16.677C13.482 16.4498 13.4254 16.2195 13.3874 15.9857C13.3495 15.7523 13.3302 15.5175 13.3302 15.2811Z" fill="#E5281E"/>
</svg>
