<svg xmlns="http://www.w3.org/2000/svg" xmlns:xlink="http://www.w3.org/1999/xlink" viewBox="0 0 381.56 441"><defs><style>.cls-1{fill:#f8ac17;}.cls-2{isolation:isolate;}.cls-3{clip-path:url(#clip-path);}.cls-4{fill:#fff;}.cls-5{fill:#eeeff1;}.cls-6{fill:#262626;}.cls-7{fill:#00f1ff;}.cls-8{mix-blend-mode:multiply;}.cls-9{fill:#d1d2d4;}.cls-10{fill:none;stroke:#ffbd1a;stroke-miterlimit:10;stroke-width:3px;}</style><clipPath id="clip-path"><path class="cls-1" d="M190.78,28.78A115.34,115.34,0,0,0,97.69,212.22S110.78,245,85.78,283c20.43,1.92,48.79-16.49,66.64-30.06A115.35,115.35,0,1,0,190.78,28.78Z"/></clipPath></defs><g class="cls-2"><g id="Layer_2" data-name="Layer 2"><g id="Layer_1-2" data-name="Layer 1"><path class="cls-1" d="M190.78,28.78A115.34,115.34,0,0,0,97.69,212.22S110.78,245,85.78,283c20.43,1.92,48.79-16.49,66.64-30.06A115.35,115.35,0,1,0,190.78,28.78Z"/><g class="cls-3"><path class="cls-4" d="M190.78,89.92c-44.2,0-80,8.79-80,71.94a45,45,0,0,0,45,45h70.14a45,45,0,0,0,45-45C270.81,98.71,235,89.92,190.78,89.92Z"/><path class="cls-4" d="M190.78,89.92c-44.2,0-80,8.79-80,71.94a45,45,0,0,0,45,45h70.14a45,45,0,0,0,45-45C270.81,98.71,235,89.92,190.78,89.92Z"/><path class="cls-5" d="M235,176.42H146.52c-26.55,0-29.5-14.44-34.41-34a129.83,129.83,0,0,0-1.36,19.4,45,45,0,0,0,45,45h70.14a45,45,0,0,0,45-45,129.83,129.83,0,0,0-1.36-19.4C264.54,162,261.59,176.42,235,176.42Z"/><path d="M228.91,169H154.13c-20.78,0-28.64-8.12-28.64-20.35s12-23.95,34.86-23.95H222.7c22.81,0,34.86,11.72,34.86,23.95S249.7,169,228.91,169Z"/><path class="cls-6" d="M190.78,150.45c24.82,0,47.77-1.79,66.51-4.82-1.8-11.09-13.64-21-34.59-21H160.35c-21.1,0-33,10-34.64,21.21A430.73,430.73,0,0,0,190.78,150.45Z"/><path class="cls-7" d="M163.63,161a14.32,14.32,0,1,1,14.31-14.32A14.34,14.34,0,0,1,163.63,161Zm0-25a10.72,10.72,0,1,0,10.72,10.72A10.73,10.73,0,0,0,163.63,136Z"/><path d="M170.64,146.68a7,7,0,1,1-7-7A7,7,0,0,1,170.64,146.68Z"/><path class="cls-4" d="M164.1,143.86a2.94,2.94,0,1,1-2.93-2.93A2.93,2.93,0,0,1,164.1,143.86Z"/><path class="cls-7" d="M217.94,161a14.32,14.32,0,1,1,14.32-14.32A14.34,14.34,0,0,1,217.94,161Zm0-25a10.72,10.72,0,1,0,10.72,10.72A10.73,10.73,0,0,0,217.94,136Z"/><path d="M210.93,146.68a7,7,0,1,0,7-7A7,7,0,0,0,210.93,146.68Z"/><path class="cls-4" d="M217.46,143.86a2.94,2.94,0,1,0,2.94-2.93A2.94,2.94,0,0,0,217.46,143.86Z"/><g class="cls-8"><path d="M190.78,194.16c-8.85,0-16.89-3.28-20.95-8.55a2.7,2.7,0,1,1,4.27-3.3c3,3.92,9.57,6.45,16.68,6.45s13.66-2.53,16.69-6.45a2.7,2.7,0,1,1,4.27,3.3C207.67,190.88,199.64,194.16,190.78,194.16Z"/></g><path class="cls-5" d="M190.78,300.34c-15.43,0-32-15.58-37-34.8L148.93,247c-5-19.23,7-34.8,26.9-34.8h29.9c19.87,0,31.91,15.57,26.9,34.8l-4.83,18.52C222.79,284.76,206.22,300.34,190.78,300.34Z"/><path class="cls-5" d="M190.78,101.74a483.83,483.83,0,0,0,51.68-2.52c-13.94-7.54-32-9.3-51.68-9.3s-37.73,1.76-51.68,9.3A484,484,0,0,0,190.78,101.74Z"/><path class="cls-9" d="M209.6,91.21a4.85,4.85,0,0,1-4.85,4.85H176.81A4.85,4.85,0,0,1,172,91.21h0a4.86,4.86,0,0,1,4.85-4.86h27.94a4.86,4.86,0,0,1,4.85,4.86Z"/><rect class="cls-9" x="188.98" y="63.75" width="3.59" height="22.6"/><path class="cls-4" d="M200.17,63.75a9.39,9.39,0,1,1-9.39-9.39A9.39,9.39,0,0,1,200.17,63.75Z"/><path class="cls-5" d="M190.78,69.58A9.37,9.37,0,0,0,200,62a9.51,9.51,0,0,1,.18,1.78,9.39,9.39,0,1,1-18.77,0,9.51,9.51,0,0,1,.18-1.78A9.37,9.37,0,0,0,190.78,69.58Z"/><path class="cls-5" d="M176.81,88.76h27.94a4.86,4.86,0,0,1,4.69,3.65,4.83,4.83,0,0,0-4.69-6.06H176.81a4.79,4.79,0,0,0-4.68,6.06A4.85,4.85,0,0,1,176.81,88.76Z"/><path class="cls-4" d="M234,241.42a7,7,0,0,1-2.37-13.59c.33-.13,12.64-4.93,25-22.13A7,7,0,0,1,268,213.89c-15.29,21.18-31,26.9-31.71,27.13A7,7,0,0,1,234,241.42Z"/><path class="cls-4" d="M157,218.38c7.92,2.27,20.1,3.72,33.77,3.72s25.86-1.45,33.78-3.72c-4.8-3.88-11.24-6.16-18.83-6.16h-29.9C168.24,212.22,161.8,214.5,157,218.38Z"/></g><rect class="cls-10" x="1.5" y="1.5" width="378.56" height="438" rx="40.26"/></g></g></g></svg>